<?xml version="1.0" standalone="no"?>
<!DOCTYPE svg PUBLIC "-//W3C//DTD SVG 20010904//EN"
 "http://www.w3.org/TR/2001/REC-SVG-20010904/DTD/svg10.dtd">
<svg version="1.0" xmlns="http://www.w3.org/2000/svg"
 width="1080.000000pt" height="1080.000000pt" viewBox="0 0 1080.000000 1080.000000"
 preserveAspectRatio="xMidYMid meet">

<g transform="translate(0.000000,1080.000000) scale(0.100000,-0.100000)"
fill="#000000" stroke="none">
<path d="M5420 9735 l0 -853 -1422 -1103 c-783 -607 -1635 -1268 -1893 -1469
l-471 -365 607 -1302 c334 -717 609 -1311 611 -1320 2 -11 12 -17 23 -17 11 1
1031 98 2267 215 2053 195 2248 216 2248 232 0 9 6 17 13 17 7 0 92 261 225
693 117 380 234 762 261 848 l48 156 -364 113 c-201 62 -368 108 -373 104 -4
-5 -91 -281 -194 -613 -102 -332 -188 -606 -191 -609 -5 -5 -3394 -331 -3451
-332 l-31 0 -363 778 c-200 427 -364 785 -364 794 -1 11 612 493 1789 1406
l1790 1388 3 652 c2 524 5 652 15 652 7 0 85 -18 172 -40 1465 -368 2646
-1464 3120 -2895 101 -302 159 -566 201 -905 15 -115 18 -217 18 -490 0 -368
-8 -476 -60 -775 -192 -1099 -815 -2105 -1722 -2778 -591 -439 -1288 -725
-2019 -827 -237 -33 -430 -43 -713 -37 -274 6 -422 19 -670 62 -798 139 -1560
509 -2174 1056 -49 43 -92 79 -95 79 -7 0 -344 -584 -349 -603 -3 -14 150
-145 311 -266 705 -531 1548 -875 2417 -985 426 -55 894 -55 1320 0 1445 184
2759 995 3580 2210 138 203 218 343 340 585 292 586 459 1181 521 1859 16 174
16 655 0 835 -58 658 -225 1265 -505 1832 -194 394 -399 708 -680 1048 -128
155 -466 491 -626 624 -595 496 -1278 847 -2014 1036 -357 92 -656 135 -1083
158 l-73 4 0 -852z"/>
</g>
</svg>
