<svg width="1000" height="1000" viewBox="0 0 1000 1000" fill="none" xmlns="http://www.w3.org/2000/svg">
<path d="M168.605 509.871L319.96 741.356C344.704 779.199 317.553 829.392 272.338 829.392C252.884 829.392 234.779 819.453 224.334 803.041L42.3897 517.128C29.9796 497.626 30.1431 472.664 42.8077 453.326L166.289 264.786C189.468 229.393 241.313 229.316 264.598 264.638L407.242 481.022C450.444 546.557 546.604 546.492 589.718 480.9L730.013 267.461C753.293 232.042 805.26 232.13 828.421 267.627L949.83 453.7C962.353 472.893 962.588 497.614 950.43 517.042L770.634 804.344C760.033 821.284 741.368 831.473 721.386 831.23C676.156 830.678 649.386 780.376 674.193 742.552L823.225 515.315C835.407 496.739 835.191 472.652 822.677 454.298C800.736 422.118 753.189 422.397 731.627 454.833L545.467 734.867C522.132 769.97 470.534 769.853 447.358 734.645L259.95 449.944C238.242 416.967 189.795 417.202 168.408 450.388C156.726 468.516 156.803 491.821 168.605 509.871Z" stroke="black" stroke-width="50.4141"/>
</svg>
